<svg id="Layer_1" data-name="Layer 1" xmlns="http://www.w3.org/2000/svg" viewBox="0 0 250 250"><defs><style>.cls-1{fill:#64ffda;}</style></defs><path class="cls-1" d="M124.64,217.57c-10.63,0-21.25-.07-31.88.06a4.91,4.91,0,0,1-5-2.88Q75.09,192.43,62.06,170.3a13.7,13.7,0,0,0-4.61-4.66Q35.5,152.73,13.36,140.15c-2.49-1.42-3.55-2.92-3.53-5.91C10,113,10,91.73,9.85,70.48a5,5,0,0,1,2.82-5q28-16,55.88-32.26c2.19-1.29,3.74-1,5.77.17,15.53,9.05,31.15,17.92,46.64,27,2.87,1.69,5,1.86,8,.09,15.46-9.15,31.11-18,46.62-27.07,2.21-1.29,3.84-1.44,6.14-.1q27.67,16.16,55.53,32c2.27,1.3,2.95,2.83,2.94,5.4q-.17,31.89,0,63.76c0,2.89-1.08,4.24-3.4,5.56q-22.12,12.6-44.1,25.49a13.56,13.56,0,0,0-4.65,4.63Q175.21,192,162.77,213.93c-1.52,2.69-3.13,3.77-6.25,3.72C145.9,217.45,135.27,217.57,124.64,217.57Zm-66-160.7C47.73,63.18,37.08,69.28,26.53,75.54c-.8.47-1.26,2.14-1.26,3.25q-.12,23.77,0,47.56c0,1.19.64,2.94,1.55,3.48,10.42,6.21,21,12.23,31.69,18.44.93-1.49,1.7-2.64,2.39-3.84,5.66-9.79,10.57-20.12,17.16-29.23,6.48-9,6.46-16.09.08-25.12C70.85,79.74,65.22,68.23,58.65,56.87Zm133,.22a10.08,10.08,0,0,0-1.12,1.27c-8.14,14.06-16.33,28.11-24.31,42.26a5.49,5.49,0,0,0,.27,4.52c3.93,7.19,8.12,14.25,12.22,21.34l12.65,21.85c10.88-6.28,21.42-12.29,31.83-18.52,1-.58,1.5-2.58,1.51-3.93.12-11.32.11-22.65.06-34,0-5.21,1.41-11.34-.83-15.37-2.15-3.84-8.19-5.55-12.57-8.11C204.81,64.59,198.2,60.84,191.66,57.09ZM170.74,168.94c-15-8.67-29.69-17.18-44.46-25.5-.94-.52-2.92.13-4.09.8-13.53,7.69-27,15.49-40.47,23.29a20.06,20.06,0,0,0-2.26,1.74c6,10.4,11.79,20.61,17.81,30.69a5.41,5.41,0,0,0,3.94,2.2q23.81.22,47.6,0a5.38,5.38,0,0,0,3.93-2.22C158.76,189.87,164.56,179.66,170.74,168.94ZM73.09,51C81.53,65.54,89.27,79,97.15,92.4c.65,1.12,2.15,2.42,3.3,2.47,5.49.26,11,.12,17,.12,0-5.23-.16-10.16.06-15.06.12-2.76-.78-4.31-3.24-5.69-12.43-7-24.74-14.2-37.1-21.32C76.22,52.39,75.22,52,73.09,51Zm.67,102.17.74.71c13.81-8,27.63-16,41.41-24a3.27,3.27,0,0,0,1.44-2.31c.12-5.63.06-11.26.06-17.23-6.1,0-11.74-.08-17.38.08a3.65,3.65,0,0,0-2.51,1.7C89.54,125.74,81.66,139.44,73.76,153.13ZM132.6,95c5.54,0,10.62-.15,15.68.06,2.5.11,3.75-.86,4.93-2.93,6.89-12.16,13.93-24.23,20.9-36.35.65-1.13,1.2-2.33,1.9-3.71-.88-.1-1.19-.24-1.37-.14q-20,11.49-40,23.07c-.87.5-1.94,1.59-2,2.43C132.52,83.17,132.6,88.93,132.6,95Zm0,15.31c0,5.54-.22,10.63.12,15.68a6.57,6.57,0,0,0,2.65,4.54c12.52,7.45,25.17,14.68,37.8,21.94a35.75,35.75,0,0,0,3.57,1.48c-8.34-14.45-16.16-28.07-24.11-41.61a4.56,4.56,0,0,0-3.21-1.94C144,110.18,138.64,110.3,132.57,110.3Z"/></svg>